<?xml version="1.0" encoding="utf-8" standalone="no"?>
<!DOCTYPE svg PUBLIC "-//W3C//DTD SVG 1.1//EN"
  "http://www.w3.org/Graphics/SVG/1.1/DTD/svg11.dtd">
<!-- Created with matplotlib (https://matplotlib.org/) -->
<svg height="269.054297pt" version="1.1" viewBox="0 0 299.207229 269.054297" width="299.207229pt" xmlns="http://www.w3.org/2000/svg" xmlns:xlink="http://www.w3.org/1999/xlink">
 <metadata>
  <rdf:RDF xmlns:cc="http://creativecommons.org/ns#" xmlns:dc="http://purl.org/dc/elements/1.1/" xmlns:rdf="http://www.w3.org/1999/02/22-rdf-syntax-ns#">
   <cc:Work>
    <dc:type rdf:resource="http://purl.org/dc/dcmitype/StillImage"/>
    <dc:date>2021-05-17T19:02:54.320572</dc:date>
    <dc:format>image/svg+xml</dc:format>
    <dc:creator>
     <cc:Agent>
      <dc:title>Matplotlib v3.3.4, https://matplotlib.org/</dc:title>
     </cc:Agent>
    </dc:creator>
   </cc:Work>
  </rdf:RDF>
 </metadata>
 <defs>
  <style type="text/css">*{stroke-linecap:butt;stroke-linejoin:round;}</style>
 </defs>
 <g id="figure_1">
  <g id="patch_1">
   <path d="M 0 269.054297 
L 299.207229 269.054297 
L 299.207229 0 
L 0 0 
z
" style="fill:none;"/>
  </g>
  <g id="patch_2">
   <path d="M 41.256536 257.256 
L 291.312536 257.256 
L 291.312536 7.2 
L 41.256536 7.2 
z
" style="fill:#ffffff;"/>
  </g>
  <g id="pane3d_1">
   <g id="patch_3">
    <path d="M 169.663671 124.618443 
L 280.96076 179.965317 
L 286.042819 75.398328 
L 169.663671 24.955646 
" style="fill:#f2f2f2;opacity:0.5;stroke:#f2f2f2;stroke-linejoin:miter;"/>
   </g>
  </g>
  <g id="pane3d_2">
   <g id="patch_4">
    <path d="M 169.663671 124.618443 
L 58.366582 179.965317 
L 53.284523 75.398328 
L 169.663671 24.955646 
" style="fill:#e6e6e6;opacity:0.5;stroke:#e6e6e6;stroke-linejoin:miter;"/>
   </g>
  </g>
  <g id="pane3d_3">
   <g id="patch_5">
    <path d="M 169.663671 124.618443 
L 58.366582 179.965317 
L 169.663671 243.811842 
L 280.96076 179.965317 
" style="fill:#ececec;opacity:0.5;stroke:#ececec;stroke-linejoin:miter;"/>
   </g>
  </g>
  <g id="axis3d_1">
   <g id="line2d_1">
    <path d="M 280.96076 179.965317 
L 169.663671 243.811842 
" style="fill:none;stroke:#000000;stroke-linecap:square;stroke-width:0.8;"/>
   </g>
   <g id="text_1">
    <!-- F1 -->
    <g transform="translate(244.965713 245.574521)scale(0.1 -0.1)">
     <defs>
      <path d="M 45.703125 61.328125 
L 13.671875 61.328125 
L 13.671875 39.453125 
L 37.890625 39.453125 
L 37.890625 32.03125 
L 13.671875 32.03125 
L 13.671875 1.953125 
L 4.6875 1.953125 
L 4.6875 68.75 
L 45.703125 68.75 
z
" id="SimHei-70"/>
      <path d="M 21.875 56.25 
Q 16.796875 51.171875 8.984375 46.484375 
L 8.984375 53.90625 
Q 18.75 60.546875 25 69.53125 
L 29.6875 69.53125 
L 29.6875 2.34375 
L 21.875 2.34375 
z
" id="SimHei-49"/>
     </defs>
     <use xlink:href="#SimHei-70"/>
     <use x="50" xlink:href="#SimHei-49"/>
    </g>
   </g>
   <g id="Line3DCollection_1">
    <path d="M 274.353288 183.755749 
L 163.024443 127.920061 
L 162.741067 27.956138 
" style="fill:none;stroke:#b0b0b0;stroke-width:0.8;"/>
    <path d="M 256.543277 193.972614 
L 145.148878 136.809392 
L 144.090089 36.040106 
" style="fill:none;stroke:#b0b0b0;stroke-width:0.8;"/>
    <path d="M 238.292182 204.442511 
L 126.860881 145.903821 
L 124.989978 44.318744 
" style="fill:none;stroke:#b0b0b0;stroke-width:0.8;"/>
    <path d="M 219.58341 215.174958 
L 108.146012 155.210529 
L 105.424315 52.799169 
" style="fill:none;stroke:#b0b0b0;stroke-width:0.8;"/>
    <path d="M 200.399527 226.179956 
L 88.989147 164.737037 
L 85.375867 61.488848 
" style="fill:none;stroke:#b0b0b0;stroke-width:0.8;"/>
    <path d="M 180.722204 237.46802 
L 69.374443 174.491223 
L 64.826542 70.395625 
" style="fill:none;stroke:#b0b0b0;stroke-width:0.8;"/>
   </g>
   <g id="xtick_1">
    <g id="line2d_2">
     <path d="M 273.399404 183.27734 
L 276.26434 184.714215 
" style="fill:none;stroke:#000000;stroke-linecap:square;stroke-width:0.8;"/>
    </g>
    <g id="text_2">
     <!-- 0.0 -->
     <g transform="translate(277.007229 204.804645)scale(0.1 -0.1)">
      <defs>
       <path d="M 3.125 29.296875 
Q 3.90625 50 6.4375 56.046875 
Q 8.984375 62.109375 13.671875 66.015625 
Q 18.359375 69.921875 25.1875 69.921875 
Q 32.03125 69.921875 37.109375 64.25 
Q 42.1875 58.59375 43.75 50 
Q 45.3125 41.40625 44.71875 30.265625 
Q 44.140625 19.140625 40.8125 12.109375 
Q 37.5 5.078125 30.859375 2.34375 
Q 24.21875 -0.390625 17.578125 2.921875 
Q 10.9375 6.25 8.203125 11.71875 
Q 5.46875 17.1875 4.296875 23.234375 
Q 3.125 29.296875 3.90625 50 
z
M 12.890625 52.734375 
Q 10.546875 31.25 12.5 22.84375 
Q 14.453125 14.453125 18.9375 10.9375 
Q 23.4375 7.421875 28.125 9.5625 
Q 32.8125 11.71875 34.953125 18.15625 
Q 37.109375 24.609375 37.109375 32.21875 
Q 37.109375 39.84375 36.515625 46.09375 
Q 35.9375 52.34375 33 57.421875 
Q 30.078125 62.5 25.1875 62.6875 
Q 20.3125 62.890625 16.59375 57.8125 
Q 12.890625 52.734375 10.546875 31.25 
z
" id="SimHei-48"/>
       <path d="M 16.796875 1.953125 
L 7.8125 1.953125 
L 7.8125 10.546875 
L 16.796875 10.546875 
z
" id="SimHei-46"/>
      </defs>
      <use xlink:href="#SimHei-48"/>
      <use x="50" xlink:href="#SimHei-46"/>
      <use x="100" xlink:href="#SimHei-48"/>
     </g>
    </g>
   </g>
   <g id="xtick_2">
    <g id="line2d_3">
     <path d="M 255.588058 193.482433 
L 258.457045 194.954685 
" style="fill:none;stroke:#000000;stroke-linecap:square;stroke-width:0.8;"/>
    </g>
    <g id="text_3">
     <!-- 0.2 -->
     <g transform="translate(259.277414 215.220731)scale(0.1 -0.1)">
      <defs>
       <path d="M 4.6875 3.90625 
Q 5.078125 9.765625 10.15625 14.453125 
Q 15.234375 19.140625 23.046875 29.09375 
Q 30.859375 39.0625 33.203125 44.53125 
Q 35.546875 50 34.953125 53.90625 
Q 34.375 57.8125 31.25 60.34375 
Q 28.125 62.890625 24.015625 62.5 
Q 19.921875 62.109375 16.203125 59.375 
Q 12.5 56.640625 10.546875 51.171875 
L 3.125 52.34375 
Q 6.25 61.328125 11.125 65.421875 
Q 16.015625 69.53125 22.65625 69.921875 
Q 26.5625 70.3125 29.6875 69.71875 
Q 32.8125 69.140625 36.125 66.984375 
Q 39.453125 64.84375 41.59375 60.546875 
Q 43.75 56.25 43.15625 50.1875 
Q 42.578125 44.140625 37.109375 35.734375 
Q 31.640625 27.34375 16.015625 9.375 
L 44.140625 9.375 
L 44.140625 2.34375 
L 4.6875 2.34375 
z
" id="SimHei-50"/>
      </defs>
      <use xlink:href="#SimHei-48"/>
      <use x="50" xlink:href="#SimHei-46"/>
      <use x="100" xlink:href="#SimHei-50"/>
     </g>
    </g>
   </g>
   <g id="xtick_3">
    <g id="line2d_4">
     <path d="M 237.335852 203.940118 
L 240.208214 205.449068 
" style="fill:none;stroke:#000000;stroke-linecap:square;stroke-width:0.8;"/>
    </g>
    <g id="text_4">
     <!-- 0.4 -->
     <g transform="translate(241.107394 225.895432)scale(0.1 -0.1)">
      <defs>
       <path d="M 31.25 17.1875 
L 1.171875 17.1875 
L 1.171875 23.828125 
L 32.8125 69.53125 
L 38.671875 69.53125 
L 38.671875 23.828125 
L 48.046875 23.828125 
L 48.046875 17.1875 
L 38.671875 17.1875 
L 38.671875 2.34375 
L 31.25 2.34375 
z
M 31.25 23.828125 
L 31.25 54.6875 
L 9.375 23.828125 
z
" id="SimHei-52"/>
      </defs>
      <use xlink:href="#SimHei-48"/>
      <use x="50" xlink:href="#SimHei-46"/>
      <use x="100" xlink:href="#SimHei-52"/>
     </g>
    </g>
   </g>
   <g id="xtick_4">
    <g id="line2d_5">
     <path d="M 218.626215 214.659892 
L 221.501218 216.20693 
" style="fill:none;stroke:#000000;stroke-linecap:square;stroke-width:0.8;"/>
    </g>
    <g id="text_5">
     <!-- 0.6 -->
     <g transform="translate(222.480568 236.838502)scale(0.1 -0.1)">
      <defs>
       <path d="M 3.515625 19.53125 
Q 4.296875 30.859375 6.046875 34.765625 
Q 7.8125 38.671875 11.328125 44.53125 
L 27.34375 69.53125 
L 36.328125 69.53125 
L 19.921875 43.75 
Q 30.46875 46.484375 36.71875 42.96875 
Q 42.96875 39.453125 45.109375 34.953125 
Q 47.265625 30.46875 47.453125 25.1875 
Q 47.65625 19.921875 45.890625 14.84375 
Q 44.140625 9.765625 39.640625 5.65625 
Q 35.15625 1.5625 27.140625 1.171875 
Q 19.140625 0.78125 13.46875 4.09375 
Q 7.8125 7.421875 5.65625 13.46875 
Q 3.515625 19.53125 4.296875 30.859375 
z
M 12.5 16.015625 
Q 19.53125 8.59375 25.390625 8.203125 
Q 31.25 7.8125 35.15625 12.109375 
Q 39.0625 16.40625 39.0625 24.609375 
Q 39.0625 32.8125 34.171875 35.9375 
Q 29.296875 39.0625 23.234375 38.28125 
Q 17.1875 37.5 14.453125 32.421875 
Q 11.71875 27.34375 12.109375 21.671875 
Q 12.5 16.015625 19.53125 8.59375 
z
" id="SimHei-54"/>
      </defs>
      <use xlink:href="#SimHei-48"/>
      <use x="50" xlink:href="#SimHei-46"/>
      <use x="100" xlink:href="#SimHei-54"/>
     </g>
    </g>
   </g>
   <g id="xtick_5">
    <g id="line2d_6">
     <path d="M 199.441731 225.65173 
L 202.318584 227.238317 
" style="fill:none;stroke:#000000;stroke-linecap:square;stroke-width:0.8;"/>
    </g>
    <g id="text_6">
     <!-- 0.8 -->
     <g transform="translate(203.379492 248.06019)scale(0.1 -0.1)">
      <defs>
       <path d="M 2.734375 16.796875 
Q 2.734375 26.171875 5.078125 30.65625 
Q 7.421875 35.15625 12.890625 37.890625 
Q 8.203125 40.625 6.640625 43.9375 
Q 5.078125 47.265625 4.875 51.5625 
Q 4.6875 55.859375 6.046875 58.984375 
Q 7.421875 62.109375 10.15625 64.84375 
Q 12.890625 67.578125 16.203125 68.546875 
Q 19.53125 69.53125 23.4375 69.53125 
Q 27.34375 69.53125 30.46875 68.75 
Q 33.59375 67.96875 37.109375 65.421875 
Q 40.625 62.890625 42.1875 58.203125 
Q 43.75 53.515625 41.984375 47.265625 
Q 40.234375 41.015625 32.8125 37.5 
Q 39.453125 35.546875 42.1875 31.4375 
Q 44.921875 27.34375 44.921875 21.484375 
Q 44.921875 15.625 43.15625 12.109375 
Q 41.40625 8.59375 39.25 6.25 
Q 37.109375 3.90625 33.390625 2.53125 
Q 29.6875 1.171875 24.015625 1.171875 
Q 18.359375 1.171875 14.25 2.53125 
Q 10.15625 3.90625 7.421875 6.640625 
Q 4.6875 9.375 3.703125 13.078125 
Q 2.734375 16.796875 2.734375 26.171875 
z
M 10.9375 26.5625 
Q 10.546875 17.1875 12.296875 13.671875 
Q 14.0625 10.15625 18.75 9.171875 
Q 23.4375 8.203125 28.515625 9.375 
Q 33.59375 10.546875 35.546875 14.84375 
Q 37.5 19.140625 36.90625 23.4375 
Q 36.328125 27.734375 32.03125 30.65625 
Q 27.734375 33.59375 22.65625 33.203125 
Q 17.578125 32.8125 14.25 29.6875 
Q 10.9375 26.5625 10.546875 17.1875 
z
M 12.109375 56.25 
Q 12.109375 48.4375 14.84375 44.921875 
Q 17.578125 41.40625 23.4375 41.40625 
Q 29.296875 41.40625 32.21875 44.921875 
Q 35.15625 48.4375 34.953125 53.3125 
Q 34.765625 58.203125 31.4375 60.546875 
Q 28.125 62.890625 22.453125 62.5 
Q 16.796875 62.109375 14.453125 59.171875 
Q 12.109375 56.25 12.109375 48.4375 
z
" id="SimHei-56"/>
      </defs>
      <use xlink:href="#SimHei-48"/>
      <use x="50" xlink:href="#SimHei-46"/>
      <use x="100" xlink:href="#SimHei-56"/>
     </g>
    </g>
   </g>
   <g id="xtick_6">
    <g id="line2d_7">
     <path d="M 179.764092 236.926125 
L 182.641938 238.553796 
" style="fill:none;stroke:#000000;stroke-linecap:square;stroke-width:0.8;"/>
    </g>
    <g id="text_7">
     <!-- 1.0 -->
     <g transform="translate(183.785819 259.571273)scale(0.1 -0.1)">
      <use xlink:href="#SimHei-49"/>
      <use x="50" xlink:href="#SimHei-46"/>
      <use x="100" xlink:href="#SimHei-48"/>
     </g>
    </g>
   </g>
  </g>
  <g id="axis3d_2">
   <g id="line2d_8">
    <path d="M 58.366582 179.965317 
L 169.663671 243.811842 
" style="fill:none;stroke:#000000;stroke-linecap:square;stroke-width:0.8;"/>
   </g>
   <g id="text_8">
    <!-- F2 -->
    <g transform="translate(84.361629 245.574521)scale(0.1 -0.1)">
     <use xlink:href="#SimHei-70"/>
     <use x="50" xlink:href="#SimHei-50"/>
    </g>
   </g>
   <g id="Line3DCollection_2">
    <path d="M 176.586275 27.956138 
L 176.3029 127.920061 
L 64.974054 183.755749 
" style="fill:none;stroke:#b0b0b0;stroke-width:0.8;"/>
    <path d="M 195.571367 36.184922 
L 194.498528 136.968557 
L 83.10322 194.1557 
" style="fill:none;stroke:#b0b0b0;stroke-width:0.8;"/>
    <path d="M 215.021926 44.615457 
L 213.121579 146.229604 
L 101.689523 204.817892 
" style="fill:none;stroke:#b0b0b0;stroke-width:0.8;"/>
    <path d="M 234.955285 53.255253 
L 232.187291 155.710783 
L 120.750474 215.752369 
" style="fill:none;stroke:#b0b0b0;stroke-width:0.8;"/>
    <path d="M 255.389644 62.112199 
L 251.711637 165.420035 
L 140.304489 226.969696 
" style="fill:none;stroke:#b0b0b0;stroke-width:0.8;"/>
    <path d="M 276.344133 71.194588 
L 271.711367 175.365691 
L 160.370951 238.480994 
" style="fill:none;stroke:#b0b0b0;stroke-width:0.8;"/>
   </g>
   <g id="xtick_7">
    <g id="line2d_9">
     <path d="M 65.927938 183.27734 
L 63.063002 184.714215 
" style="fill:none;stroke:#000000;stroke-linecap:square;stroke-width:0.8;"/>
    </g>
    <g id="text_9">
     <!-- 0.0 -->
     <g transform="translate(47.320113 204.804645)scale(0.1 -0.1)">
      <use xlink:href="#SimHei-48"/>
      <use x="50" xlink:href="#SimHei-46"/>
      <use x="100" xlink:href="#SimHei-48"/>
     </g>
    </g>
   </g>
   <g id="xtick_8">
    <g id="line2d_10">
     <path d="M 84.058462 193.665307 
L 81.189408 195.138196 
" style="fill:none;stroke:#000000;stroke-linecap:square;stroke-width:0.8;"/>
    </g>
    <g id="text_10">
     <!-- 0.2 -->
     <g transform="translate(65.367657 215.407393)scale(0.1 -0.1)">
      <use xlink:href="#SimHei-48"/>
      <use x="50" xlink:href="#SimHei-46"/>
      <use x="100" xlink:href="#SimHei-50"/>
     </g>
    </g>
   </g>
   <g id="xtick_9">
    <g id="line2d_11">
     <path d="M 102.645887 204.315059 
L 99.77342 205.825333 
" style="fill:none;stroke:#000000;stroke-linecap:square;stroke-width:0.8;"/>
    </g>
    <g id="text_11">
     <!-- 0.4 -->
     <g transform="translate(83.871425 226.278168)scale(0.1 -0.1)">
      <use xlink:href="#SimHei-48"/>
      <use x="50" xlink:href="#SimHei-46"/>
      <use x="100" xlink:href="#SimHei-52"/>
     </g>
    </g>
   </g>
   <g id="xtick_10">
    <g id="line2d_12">
     <path d="M 121.707707 215.236616 
L 118.832585 216.785717 
" style="fill:none;stroke:#000000;stroke-linecap:square;stroke-width:0.8;"/>
    </g>
    <g id="text_12">
     <!-- 0.6 -->
     <g transform="translate(102.848939 237.427264)scale(0.1 -0.1)">
      <use xlink:href="#SimHei-48"/>
      <use x="50" xlink:href="#SimHei-46"/>
      <use x="100" xlink:href="#SimHei-54"/>
     </g>
    </g>
   </g>
   <g id="xtick_11">
    <g id="line2d_13">
     <path d="M 141.262317 226.44052 
L 138.385365 228.029964 
" style="fill:none;stroke:#000000;stroke-linecap:square;stroke-width:0.8;"/>
    </g>
    <g id="text_13">
     <!-- 0.8 -->
     <g transform="translate(122.318629 248.865509)scale(0.1 -0.1)">
      <use xlink:href="#SimHei-48"/>
      <use x="50" xlink:href="#SimHei-46"/>
      <use x="100" xlink:href="#SimHei-56"/>
     </g>
    </g>
   </g>
   <g id="xtick_12">
    <g id="line2d_14">
     <path d="M 161.329077 237.937863 
L 158.451186 239.569247 
" style="fill:none;stroke:#000000;stroke-linecap:square;stroke-width:0.8;"/>
    </g>
    <g id="text_14">
     <!-- 1.0 -->
     <g transform="translate(142.299893 260.604297)scale(0.1 -0.1)">
      <use xlink:href="#SimHei-49"/>
      <use x="50" xlink:href="#SimHei-46"/>
      <use x="100" xlink:href="#SimHei-48"/>
     </g>
    </g>
   </g>
  </g>
  <g id="axis3d_3">
   <g id="line2d_15">
    <path d="M 58.366582 179.965317 
L 53.284523 75.398328 
" style="fill:none;stroke:#000000;stroke-linecap:square;stroke-width:0.8;"/>
   </g>
   <g id="text_15">
    <!-- F3 -->
    <g transform="translate(7.2 131.661365)scale(0.1 -0.1)">
     <defs>
      <path d="M 3.90625 19.140625 
L 10.9375 20.3125 
Q 12.5 15.234375 16.015625 11.90625 
Q 19.53125 8.59375 24.796875 8.78125 
Q 30.078125 8.984375 33.203125 13.078125 
Q 36.328125 17.1875 35.9375 22.453125 
Q 35.546875 27.734375 31.828125 30.65625 
Q 28.125 33.59375 19.921875 34.765625 
L 19.921875 39.84375 
Q 28.125 40.625 31.828125 44.140625 
Q 35.546875 47.65625 35.15625 53.3125 
Q 34.765625 58.984375 30.078125 61.515625 
Q 25.390625 64.0625 20.109375 62.109375 
Q 14.84375 60.15625 11.71875 51.171875 
L 4.6875 52.34375 
Q 7.03125 59.375 11.125 64.0625 
Q 15.234375 68.75 22.265625 69.53125 
Q 29.296875 70.3125 34.5625 67.765625 
Q 39.84375 65.234375 41.984375 59.953125 
Q 44.140625 54.6875 42.578125 48.4375 
Q 41.015625 42.1875 33.59375 37.5 
Q 39.0625 35.15625 41.984375 30.46875 
Q 44.921875 25.78125 43.9375 18.15625 
Q 42.96875 10.546875 37.109375 5.859375 
Q 31.25 1.171875 23.828125 1.359375 
Q 16.40625 1.5625 10.9375 6.046875 
Q 5.46875 10.546875 3.90625 19.140625 
z
" id="SimHei-51"/>
     </defs>
     <use xlink:href="#SimHei-70"/>
     <use x="50" xlink:href="#SimHei-51"/>
    </g>
   </g>
   <g id="Line3DCollection_3">
    <path d="M 58.269295 177.963554 
L 169.663671 122.704875 
L 281.058047 177.963554 
" style="fill:none;stroke:#b0b0b0;stroke-width:0.8;"/>
    <path d="M 57.346874 158.984092 
L 169.663671 104.572682 
L 281.980468 158.984092 
" style="fill:none;stroke:#b0b0b0;stroke-width:0.8;"/>
    <path d="M 56.409049 139.68768 
L 169.663671 86.158175 
L 282.918293 139.68768 
" style="fill:none;stroke:#b0b0b0;stroke-width:0.8;"/>
    <path d="M 55.455432 120.066312 
L 169.663671 67.454707 
L 283.871911 120.066312 
" style="fill:none;stroke:#b0b0b0;stroke-width:0.8;"/>
    <path d="M 54.485618 100.111709 
L 169.663671 48.455424 
L 284.841724 100.111709 
" style="fill:none;stroke:#b0b0b0;stroke-width:0.8;"/>
    <path d="M 53.499193 79.81531 
L 169.663671 29.153252 
L 285.828149 79.81531 
" style="fill:none;stroke:#b0b0b0;stroke-width:0.8;"/>
   </g>
   <g id="xtick_13">
    <g id="line2d_16">
     <path d="M 59.223508 177.490203 
L 56.357594 178.911878 
" style="fill:none;stroke:#000000;stroke-linecap:square;stroke-width:0.8;"/>
    </g>
    <g id="text_16">
     <!-- 0.0 -->
     <g transform="translate(31.096999 184.838554)scale(0.1 -0.1)">
      <use xlink:href="#SimHei-48"/>
      <use x="50" xlink:href="#SimHei-46"/>
      <use x="100" xlink:href="#SimHei-48"/>
     </g>
    </g>
   </g>
   <g id="xtick_14">
    <g id="line2d_17">
     <path d="M 58.309516 158.517744 
L 55.418262 159.9184 
" style="fill:none;stroke:#000000;stroke-linecap:square;stroke-width:0.8;"/>
    </g>
    <g id="text_17">
     <!-- 0.2 -->
     <g transform="translate(30.011678 165.859092)scale(0.1 -0.1)">
      <use xlink:href="#SimHei-48"/>
      <use x="50" xlink:href="#SimHei-46"/>
      <use x="100" xlink:href="#SimHei-50"/>
     </g>
    </g>
   </g>
   <g id="xtick_15">
    <g id="line2d_18">
     <path d="M 57.380268 139.228636 
L 54.463225 140.607369 
" style="fill:none;stroke:#000000;stroke-linecap:square;stroke-width:0.8;"/>
    </g>
    <g id="text_18">
     <!-- 0.4 -->
     <g transform="translate(28.908233 146.56268)scale(0.1 -0.1)">
      <use xlink:href="#SimHei-48"/>
      <use x="50" xlink:href="#SimHei-46"/>
      <use x="100" xlink:href="#SimHei-52"/>
     </g>
    </g>
   </g>
   <g id="xtick_16">
    <g id="line2d_19">
     <path d="M 56.435381 119.614884 
L 53.492086 120.970754 
" style="fill:none;stroke:#000000;stroke-linecap:square;stroke-width:0.8;"/>
    </g>
    <g id="text_19">
     <!-- 0.6 -->
     <g transform="translate(27.786206 126.941312)scale(0.1 -0.1)">
      <use xlink:href="#SimHei-48"/>
      <use x="50" xlink:href="#SimHei-46"/>
      <use x="100" xlink:href="#SimHei-54"/>
     </g>
    </g>
   </g>
   <g id="xtick_17">
    <g id="line2d_20">
     <path d="M 55.474457 99.668224 
L 52.504435 101.000251 
" style="fill:none;stroke:#000000;stroke-linecap:square;stroke-width:0.8;"/>
    </g>
    <g id="text_20">
     <!-- 0.8 -->
     <g transform="translate(26.645123 106.986709)scale(0.1 -0.1)">
      <use xlink:href="#SimHei-48"/>
      <use x="50" xlink:href="#SimHei-46"/>
      <use x="100" xlink:href="#SimHei-56"/>
     </g>
    </g>
   </g>
   <g id="xtick_18">
    <g id="line2d_21">
     <path d="M 54.497082 79.380107 
L 51.499846 80.687272 
" style="fill:none;stroke:#000000;stroke-linecap:square;stroke-width:0.8;"/>
    </g>
    <g id="text_21">
     <!-- 1.0 -->
     <g transform="translate(25.484495 86.69031)scale(0.1 -0.1)">
      <use xlink:href="#SimHei-49"/>
      <use x="50" xlink:href="#SimHei-46"/>
      <use x="100" xlink:href="#SimHei-48"/>
     </g>
    </g>
   </g>
  </g>
  <g id="axes_1">
   <g id="line2d_22">
    <defs>
     <path d="M 0 1.5 
C 0.397805 1.5 0.77937 1.341951 1.06066 1.06066 
C 1.341951 0.77937 1.5 0.397805 1.5 0 
C 1.5 -0.397805 1.341951 -0.77937 1.06066 -1.06066 
C 0.77937 -1.341951 0.397805 -1.5 0 -1.5 
C -0.397805 -1.5 -0.77937 -1.341951 -1.06066 -1.06066 
C -1.341951 -0.77937 -1.5 -0.397805 -1.5 0 
C -1.5 0.397805 -1.341951 0.77937 -1.06066 1.06066 
C -0.77937 1.341951 -0.397805 1.5 0 1.5 
z
" id="mc3e189e6a5" style="stroke:#4682b4;"/>
    </defs>
    <g clip-path="url(#pb72d42c2ce)">
     <use style="fill:#4682b4;stroke:#4682b4;" x="130.897914" xlink:href="#mc3e189e6a5" y="74.345799"/>
     <use style="fill:#4682b4;stroke:#4682b4;" x="150.618298" xlink:href="#mc3e189e6a5" y="41.932587"/>
     <use style="fill:#4682b4;stroke:#4682b4;" x="194.22686" xlink:href="#mc3e189e6a5" y="199.693915"/>
     <use style="fill:#4682b4;stroke:#4682b4;" x="213.263536" xlink:href="#mc3e189e6a5" y="108.335789"/>
     <use style="fill:#4682b4;stroke:#4682b4;" x="108.046543" xlink:href="#mc3e189e6a5" y="108.854577"/>
     <use style="fill:#4682b4;stroke:#4682b4;" x="169.391555" xlink:href="#mc3e189e6a5" y="57.533395"/>
     <use style="fill:#4682b4;stroke:#4682b4;" x="214.478514" xlink:href="#mc3e189e6a5" y="147.100852"/>
     <use style="fill:#4682b4;stroke:#4682b4;" x="220.467937" xlink:href="#mc3e189e6a5" y="166.668761"/>
     <use style="fill:#4682b4;stroke:#4682b4;" x="122.642033" xlink:href="#mc3e189e6a5" y="126.753974"/>
     <use style="fill:#4682b4;stroke:#4682b4;" x="141.851333" xlink:href="#mc3e189e6a5" y="199.19101"/>
     <use style="fill:#4682b4;stroke:#4682b4;" x="250.795301" xlink:href="#mc3e189e6a5" y="110.662989"/>
     <use style="fill:#4682b4;stroke:#4682b4;" x="88.912804" xlink:href="#mc3e189e6a5" y="111.919517"/>
     <use style="fill:#4682b4;stroke:#4682b4;" x="199.153217" xlink:href="#mc3e189e6a5" y="126.228478"/>
     <use style="fill:#4682b4;stroke:#4682b4;" x="183.583027" xlink:href="#mc3e189e6a5" y="151.725095"/>
     <use style="fill:#4682b4;stroke:#4682b4;" x="140.130856" xlink:href="#mc3e189e6a5" y="124.801477"/>
     <use style="fill:#4682b4;stroke:#4682b4;" x="125.250709" xlink:href="#mc3e189e6a5" y="195.111062"/>
     <use style="fill:#4682b4;stroke:#4682b4;" x="171.16015" xlink:href="#mc3e189e6a5" y="199.005128"/>
     <use style="fill:#4682b4;stroke:#4682b4;" x="256.89305" xlink:href="#mc3e189e6a5" y="157.926365"/>
     <use style="fill:#4682b4;stroke:#4682b4;" x="109.413198" xlink:href="#mc3e189e6a5" y="180.060959"/>
     <use style="fill:#4682b4;stroke:#4682b4;" x="145.281452" xlink:href="#mc3e189e6a5" y="86.021182"/>
     <use style="fill:#4682b4;stroke:#4682b4;" x="100.384655" xlink:href="#mc3e189e6a5" y="93.795461"/>
     <use style="fill:#4682b4;stroke:#4682b4;" x="92.899722" xlink:href="#mc3e189e6a5" y="186.907766"/>
     <use style="fill:#4682b4;stroke:#4682b4;" x="169.663671" xlink:href="#mc3e189e6a5" y="33.072877"/>
     <use style="fill:#4682b4;stroke:#4682b4;" x="232.027378" xlink:href="#mc3e189e6a5" y="193.303359"/>
     <use style="fill:#4682b4;stroke:#4682b4;" x="96.260251" xlink:href="#mc3e189e6a5" y="177.362022"/>
     <use style="fill:#4682b4;stroke:#4682b4;" x="81.434739" xlink:href="#mc3e189e6a5" y="157.191263"/>
     <use style="fill:#4682b4;stroke:#4682b4;" x="139.223915" xlink:href="#mc3e189e6a5" y="50.423493"/>
     <use style="fill:#4682b4;stroke:#4682b4;" x="251.812818" xlink:href="#mc3e189e6a5" y="144.757702"/>
     <use style="fill:#4682b4;stroke:#4682b4;" x="108.294219" xlink:href="#mc3e189e6a5" y="150.717334"/>
     <use style="fill:#4682b4;stroke:#4682b4;" x="101.499451" xlink:href="#mc3e189e6a5" y="165.36313"/>
     <use style="fill:#4682b4;stroke:#4682b4;" x="263.628315" xlink:href="#mc3e189e6a5" y="144.780803"/>
     <use style="fill:#4682b4;stroke:#4682b4;" x="134.024043" xlink:href="#mc3e189e6a5" y="186.212198"/>
     <use style="fill:#4682b4;stroke:#4682b4;" x="200.739539" xlink:href="#mc3e189e6a5" y="51.949251"/>
     <use style="fill:#4682b4;stroke:#4682b4;" x="235.500205" xlink:href="#mc3e189e6a5" y="112.366385"/>
     <use style="fill:#4682b4;stroke:#4682b4;" x="129.138198" xlink:href="#mc3e189e6a5" y="146.875826"/>
     <use style="fill:#4682b4;stroke:#4682b4;" x="242.836947" xlink:href="#mc3e189e6a5" y="129.097702"/>
     <use style="fill:#4682b4;stroke:#4682b4;" x="240.508928" xlink:href="#mc3e189e6a5" y="165.063745"/>
     <use style="fill:#4682b4;stroke:#4682b4;" x="233.981938" xlink:href="#mc3e189e6a5" y="148.653504"/>
     <use style="fill:#4682b4;stroke:#4682b4;" x="182.097362" xlink:href="#mc3e189e6a5" y="107.010292"/>
     <use style="fill:#4682b4;stroke:#4682b4;" x="183.149378" xlink:href="#mc3e189e6a5" y="70.692198"/>
     <use style="fill:#4682b4;stroke:#4682b4;" x="170.419182" xlink:href="#mc3e189e6a5" y="128.45299"/>
     <use style="fill:#4682b4;stroke:#4682b4;" x="216.169963" xlink:href="#mc3e189e6a5" y="196.756311"/>
     <use style="fill:#4682b4;stroke:#4682b4;" x="246.911494" xlink:href="#mc3e189e6a5" y="187.544731"/>
     <use style="fill:#4682b4;stroke:#4682b4;" x="156.79143" xlink:href="#mc3e189e6a5" y="39.852058"/>
     <use style="fill:#4682b4;stroke:#4682b4;" x="208.02062" xlink:href="#mc3e189e6a5" y="186.960098"/>
     <use style="fill:#4682b4;stroke:#4682b4;" x="78.143465" xlink:href="#mc3e189e6a5" y="180.270587"/>
     <use style="fill:#4682b4;stroke:#4682b4;" x="243.393259" xlink:href="#mc3e189e6a5" y="177.545346"/>
     <use style="fill:#4682b4;stroke:#4682b4;" x="187.78233" xlink:href="#mc3e189e6a5" y="187.242847"/>
     <use style="fill:#4682b4;stroke:#4682b4;" x="147.356658" xlink:href="#mc3e189e6a5" y="59.832058"/>
     <use style="fill:#4682b4;stroke:#4682b4;" x="171.752808" xlink:href="#mc3e189e6a5" y="87.516503"/>
     <use style="fill:#4682b4;stroke:#4682b4;" x="266.880581" xlink:href="#mc3e189e6a5" y="177.963554"/>
     <use style="fill:#4682b4;stroke:#4682b4;" x="214.125943" xlink:href="#mc3e189e6a5" y="62.24946"/>
     <use style="fill:#4682b4;stroke:#4682b4;" x="178.716529" xlink:href="#mc3e189e6a5" y="37.494213"/>
     <use style="fill:#4682b4;stroke:#4682b4;" x="116.0898" xlink:href="#mc3e189e6a5" y="167.471315"/>
     <use style="fill:#4682b4;stroke:#4682b4;" x="141.940855" xlink:href="#mc3e189e6a5" y="171.127519"/>
     <use style="fill:#4682b4;stroke:#4682b4;" x="125.723453" xlink:href="#mc3e189e6a5" y="62.949638"/>
     <use style="fill:#4682b4;stroke:#4682b4;" x="76.413577" xlink:href="#mc3e189e6a5" y="144.108997"/>
     <use style="fill:#4682b4;stroke:#4682b4;" x="72.446761" xlink:href="#mc3e189e6a5" y="177.963554"/>
     <use style="fill:#4682b4;stroke:#4682b4;" x="238.65121" xlink:href="#mc3e189e6a5" y="92.860595"/>
     <use style="fill:#4682b4;stroke:#4682b4;" x="258.959667" xlink:href="#mc3e189e6a5" y="131.502795"/>
     <use style="fill:#4682b4;stroke:#4682b4;" x="144.763407" xlink:href="#mc3e189e6a5" y="106.292268"/>
     <use style="fill:#4682b4;stroke:#4682b4;" x="226.429668" xlink:href="#mc3e189e6a5" y="77.453698"/>
     <use style="fill:#4682b4;stroke:#4682b4;" x="263.161709" xlink:href="#mc3e189e6a5" y="154.871663"/>
     <use style="fill:#4682b4;stroke:#4682b4;" x="204.2004" xlink:href="#mc3e189e6a5" y="103.582426"/>
     <use style="fill:#4682b4;stroke:#4682b4;" x="215.060905" xlink:href="#mc3e189e6a5" y="144.167421"/>
     <use style="fill:#4682b4;stroke:#4682b4;" x="228.755044" xlink:href="#mc3e189e6a5" y="182.442302"/>
     <use style="fill:#4682b4;stroke:#4682b4;" x="198.289012" xlink:href="#mc3e189e6a5" y="167.559707"/>
     <use style="fill:#4682b4;stroke:#4682b4;" x="220.689173" xlink:href="#mc3e189e6a5" y="90.879535"/>
     <use style="fill:#4682b4;stroke:#4682b4;" x="227.536024" xlink:href="#mc3e189e6a5" y="131.306431"/>
     <use style="fill:#4682b4;stroke:#4682b4;" x="194.012625" xlink:href="#mc3e189e6a5" y="87.084994"/>
     <use style="fill:#4682b4;stroke:#4682b4;" x="102.668723" xlink:href="#mc3e189e6a5" y="190.185455"/>
     <use style="fill:#4682b4;stroke:#4682b4;" x="154.113297" xlink:href="#mc3e189e6a5" y="70.071102"/>
     <use style="fill:#4682b4;stroke:#4682b4;" x="90.427983" xlink:href="#mc3e189e6a5" y="147.94432"/>
     <use style="fill:#4682b4;stroke:#4682b4;" x="187.704196" xlink:href="#mc3e189e6a5" y="60.590443"/>
     <use style="fill:#4682b4;stroke:#4682b4;" x="168.044461" xlink:href="#mc3e189e6a5" y="106.192397"/>
     <use style="fill:#4682b4;stroke:#4682b4;" x="192.936289" xlink:href="#mc3e189e6a5" y="87.294513"/>
     <use style="fill:#4682b4;stroke:#4682b4;" x="82.76835" xlink:href="#mc3e189e6a5" y="162.718072"/>
     <use style="fill:#4682b4;stroke:#4682b4;" x="112.367483" xlink:href="#mc3e189e6a5" y="76.426619"/>
     <use style="fill:#4682b4;stroke:#4682b4;" x="171.734318" xlink:href="#mc3e189e6a5" y="174.074667"/>
     <use style="fill:#4682b4;stroke:#4682b4;" x="196.766131" xlink:href="#mc3e189e6a5" y="148.098776"/>
     <use style="fill:#4682b4;stroke:#4682b4;" x="128.278031" xlink:href="#mc3e189e6a5" y="108.409732"/>
     <use style="fill:#4682b4;stroke:#4682b4;" x="189.17812" xlink:href="#mc3e189e6a5" y="43.981995"/>
     <use style="fill:#4682b4;stroke:#4682b4;" x="79.34807" xlink:href="#mc3e189e6a5" y="139.223656"/>
     <use style="fill:#4682b4;stroke:#4682b4;" x="94.807455" xlink:href="#mc3e189e6a5" y="124.829276"/>
     <use style="fill:#4682b4;stroke:#4682b4;" x="260.589792" xlink:href="#mc3e189e6a5" y="136.43592"/>
     <use style="fill:#4682b4;stroke:#4682b4;" x="82.020353" xlink:href="#mc3e189e6a5" y="130.36254"/>
     <use style="fill:#4682b4;stroke:#4682b4;" x="149.733813" xlink:href="#mc3e189e6a5" y="44.733283"/>
     <use style="fill:#4682b4;stroke:#4682b4;" x="120.26708" xlink:href="#mc3e189e6a5" y="90.091069"/>
     <use style="fill:#4682b4;stroke:#4682b4;" x="72.40741" xlink:href="#mc3e189e6a5" y="174.409504"/>
     <use style="fill:#4682b4;stroke:#4682b4;" x="168.039508" xlink:href="#mc3e189e6a5" y="149.190223"/>
     <use style="fill:#4682b4;stroke:#4682b4;" x="170.000629" xlink:href="#mc3e189e6a5" y="38.742289"/>
    </g>
   </g>
   <g id="legend_1">
    <g id="patch_6">
     <path d="M 192.312536 28.45 
L 284.312536 28.45 
Q 286.312536 28.45 286.312536 26.45 
L 286.312536 14.2 
Q 286.312536 12.2 284.312536 12.2 
L 192.312536 12.2 
Q 190.312536 12.2 190.312536 14.2 
L 190.312536 26.45 
Q 190.312536 28.45 192.312536 28.45 
z
" style="fill:#ffffff;opacity:0.8;stroke:#cccccc;stroke-linejoin:miter;"/>
    </g>
    <g id="line2d_23"/>
    <g id="line2d_24">
     <g>
      <use style="fill:#4682b4;stroke:#4682b4;" x="204.312536" xlink:href="#mc3e189e6a5" y="19.7"/>
     </g>
    </g>
    <g id="text_22">
     <!-- Pareto Front -->
     <g transform="translate(222.312536 23.2)scale(0.1 -0.1)">
      <defs>
       <path d="M 46.09375 48.4375 
Q 46.09375 39.0625 40.625 33.59375 
Q 35.15625 28.125 25.390625 28.125 
L 14.0625 28.125 
L 14.0625 1.953125 
L 5.078125 1.953125 
L 5.078125 68.75 
L 25.390625 68.75 
Q 35.15625 68.75 40.625 63.28125 
Q 46.09375 57.8125 46.09375 48.4375 
z
M 37.109375 48.4375 
Q 37.109375 55.859375 33.59375 58.59375 
Q 30.078125 61.328125 23.046875 61.328125 
L 14.0625 61.328125 
L 14.0625 35.546875 
L 23.046875 35.546875 
Q 30.078125 35.546875 33.59375 38.28125 
Q 37.109375 41.015625 37.109375 48.4375 
z
" id="SimHei-80"/>
       <path d="M 44.921875 1.953125 
L 35.546875 1.953125 
Q 34.765625 2.734375 34.375 4.09375 
Q 33.984375 5.46875 33.984375 7.421875 
Q 31.25 4.296875 27.34375 2.734375 
Q 23.4375 1.171875 19.140625 1.171875 
Q 12.890625 1.171875 8.59375 4.296875 
Q 4.296875 7.421875 4.296875 13.28125 
Q 4.296875 19.140625 8.203125 22.65625 
Q 12.109375 26.171875 20.3125 27.34375 
Q 25.78125 28.125 29.875 29.296875 
Q 33.984375 30.46875 33.984375 32.421875 
Q 33.984375 34.765625 32.21875 37.109375 
Q 30.46875 39.453125 24.609375 39.453125 
Q 19.921875 39.453125 17.765625 37.6875 
Q 15.625 35.9375 14.84375 32.8125 
L 6.25 32.8125 
Q 7.03125 39.0625 11.90625 42.765625 
Q 16.796875 46.484375 24.609375 46.484375 
Q 33.203125 46.484375 37.5 42.578125 
Q 41.796875 38.671875 41.796875 31.640625 
L 41.796875 10.15625 
Q 41.796875 7.8125 42.578125 5.859375 
Q 43.359375 3.90625 44.921875 1.953125 
z
M 33.984375 16.40625 
L 33.984375 24.21875 
Q 31.640625 23.4375 29.484375 22.84375 
Q 27.34375 22.265625 22.265625 21.484375 
Q 16.40625 20.703125 14.640625 18.75 
Q 12.890625 16.796875 12.890625 14.0625 
Q 12.890625 11.71875 14.640625 9.953125 
Q 16.40625 8.203125 19.921875 8.203125 
Q 23.4375 8.203125 27.53125 10.15625 
Q 31.640625 12.109375 33.984375 16.40625 
z
" id="SimHei-97"/>
       <path d="M 39.0625 37.890625 
Q 31.640625 39.0625 26.5625 35.734375 
Q 21.484375 32.421875 17.96875 24.21875 
L 17.96875 1.953125 
L 10.15625 1.953125 
L 10.15625 45.703125 
L 17.96875 45.703125 
L 17.96875 34.375 
Q 21.484375 40.625 26.75 43.546875 
Q 32.03125 46.484375 39.0625 46.484375 
z
" id="SimHei-114"/>
       <path d="M 44.53125 16.796875 
Q 43.75 9.765625 38.28125 5.46875 
Q 32.8125 1.171875 25.390625 1.171875 
Q 16.015625 1.171875 9.953125 7.21875 
Q 3.90625 13.28125 3.90625 23.828125 
Q 3.90625 34.375 9.953125 40.421875 
Q 16.015625 46.484375 25.390625 46.484375 
Q 33.59375 46.484375 38.859375 41.203125 
Q 44.140625 35.9375 44.140625 23.828125 
L 12.5 23.828125 
Q 12.5 15.234375 16.203125 11.71875 
Q 19.921875 8.203125 25.390625 8.203125 
Q 29.6875 8.203125 32.421875 10.34375 
Q 35.15625 12.5 35.9375 16.796875 
z
M 35.15625 30.078125 
Q 34.375 35.546875 31.640625 37.6875 
Q 28.90625 39.84375 24.609375 39.84375 
Q 20.703125 39.84375 17.578125 37.6875 
Q 14.453125 35.546875 12.890625 30.078125 
z
" id="SimHei-101"/>
       <path d="M 42.96875 3.125 
Q 41.015625 2.34375 38.46875 1.75 
Q 35.9375 1.171875 31.640625 1.171875 
Q 24.609375 1.171875 20.3125 5.078125 
Q 16.015625 8.984375 16.015625 16.015625 
L 16.015625 39.453125 
L 2.734375 39.453125 
L 2.734375 45.703125 
L 16.015625 45.703125 
L 16.015625 60.9375 
L 23.828125 60.9375 
L 23.828125 45.703125 
L 39.84375 45.703125 
L 39.84375 39.453125 
L 23.828125 39.453125 
L 23.828125 15.625 
Q 23.828125 12.5 25.390625 10.34375 
Q 26.953125 8.203125 31.25 8.203125 
Q 35.546875 8.203125 38.28125 8.984375 
Q 41.015625 9.765625 42.96875 10.9375 
z
" id="SimHei-116"/>
       <path d="M 45.703125 23.828125 
Q 45.703125 13.671875 39.453125 7.421875 
Q 33.203125 1.171875 24.609375 1.171875 
Q 16.015625 1.171875 9.765625 7.421875 
Q 3.515625 13.671875 3.515625 23.828125 
Q 3.515625 33.984375 9.765625 40.234375 
Q 16.015625 46.484375 24.609375 46.484375 
Q 33.203125 46.484375 39.453125 40.234375 
Q 45.703125 33.984375 45.703125 23.828125 
z
M 37.109375 23.828125 
Q 37.109375 31.640625 33.203125 35.546875 
Q 29.296875 39.453125 24.609375 39.453125 
Q 19.921875 39.453125 16.015625 35.546875 
Q 12.109375 31.640625 12.109375 23.828125 
Q 12.109375 16.015625 16.015625 12.109375 
Q 19.921875 8.203125 24.609375 8.203125 
Q 29.296875 8.203125 33.203125 12.109375 
Q 37.109375 16.015625 37.109375 23.828125 
z
" id="SimHei-111"/>
       <path id="SimHei-32"/>
       <path d="M 43.75 1.953125 
L 35.9375 1.953125 
L 35.9375 30.078125 
Q 35.9375 34.765625 33.59375 37.5 
Q 31.25 40.234375 27.34375 40.234375 
Q 22.265625 40.234375 17.765625 34.953125 
Q 13.28125 29.6875 13.28125 21.875 
L 13.28125 1.953125 
L 5.46875 1.953125 
L 5.46875 45.703125 
L 13.28125 45.703125 
L 13.28125 37.5 
Q 16.40625 41.796875 20.109375 44.140625 
Q 23.828125 46.484375 29.6875 46.484375 
Q 36.71875 46.484375 40.234375 42.578125 
Q 43.75 38.671875 43.75 32.8125 
z
" id="SimHei-110"/>
      </defs>
      <use xlink:href="#SimHei-80"/>
      <use x="50" xlink:href="#SimHei-97"/>
      <use x="100" xlink:href="#SimHei-114"/>
      <use x="150" xlink:href="#SimHei-101"/>
      <use x="200" xlink:href="#SimHei-116"/>
      <use x="250" xlink:href="#SimHei-111"/>
      <use x="300" xlink:href="#SimHei-32"/>
      <use x="350" xlink:href="#SimHei-70"/>
      <use x="400" xlink:href="#SimHei-114"/>
      <use x="450" xlink:href="#SimHei-111"/>
      <use x="500" xlink:href="#SimHei-110"/>
      <use x="550" xlink:href="#SimHei-116"/>
     </g>
    </g>
   </g>
  </g>
 </g>
 <defs>
  <clipPath id="pb72d42c2ce">
   <rect height="250.056" width="250.056" x="41.256536" y="7.2"/>
  </clipPath>
 </defs>
</svg>
