<?xml version="1.0" encoding="utf-8" standalone="no"?>
<!DOCTYPE svg PUBLIC "-//W3C//DTD SVG 1.1//EN"
  "http://www.w3.org/Graphics/SVG/1.1/DTD/svg11.dtd">
<!-- Created with matplotlib (https://matplotlib.org/) -->
<svg height="259.09pt" version="1.1" viewBox="0 0 383.325 259.09" width="383.325pt" xmlns="http://www.w3.org/2000/svg" xmlns:xlink="http://www.w3.org/1999/xlink">
 <metadata>
  <rdf:RDF xmlns:cc="http://creativecommons.org/ns#" xmlns:dc="http://purl.org/dc/elements/1.1/" xmlns:rdf="http://www.w3.org/1999/02/22-rdf-syntax-ns#">
   <cc:Work>
    <dc:type rdf:resource="http://purl.org/dc/dcmitype/StillImage"/>
    <dc:date>2021-05-17T17:04:58.582530</dc:date>
    <dc:format>image/svg+xml</dc:format>
    <dc:creator>
     <cc:Agent>
      <dc:title>Matplotlib v3.3.4, https://matplotlib.org/</dc:title>
     </cc:Agent>
    </dc:creator>
   </cc:Work>
  </rdf:RDF>
 </metadata>
 <defs>
  <style type="text/css">*{stroke-linecap:butt;stroke-linejoin:round;}</style>
 </defs>
 <g id="figure_1">
  <g id="patch_1">
   <path d="M 0 259.09 
L 383.325 259.09 
L 383.325 0 
L 0 0 
z
" style="fill:none;"/>
  </g>
  <g id="axes_1">
   <g id="patch_2">
    <path d="M 41.325 224.64 
L 376.125 224.64 
L 376.125 7.2 
L 41.325 7.2 
z
" style="fill:#ffffff;"/>
   </g>
   <g id="matplotlib.axis_1">
    <g id="xtick_1">
     <g id="line2d_1">
      <path clip-path="url(#p557e692e79)" d="M 52.750455 224.64 
L 52.750455 7.2 
" style="fill:none;stroke:#b0b0b0;stroke-linecap:square;stroke-width:0.8;"/>
     </g>
     <g id="line2d_2">
      <defs>
       <path d="M 0 0 
L 0 3.5 
" id="m1694494299" style="stroke:#000000;stroke-width:0.8;"/>
      </defs>
      <g>
       <use style="stroke:#000000;stroke-width:0.8;" x="52.750455" xlink:href="#m1694494299" y="224.64"/>
      </g>
     </g>
     <g id="text_1">
      <!-- 0.0 -->
      <g transform="translate(45.250455 238.515)scale(0.1 -0.1)">
       <defs>
        <path d="M 3.125 29.296875 
Q 3.90625 50 6.4375 56.046875 
Q 8.984375 62.109375 13.671875 66.015625 
Q 18.359375 69.921875 25.1875 69.921875 
Q 32.03125 69.921875 37.109375 64.25 
Q 42.1875 58.59375 43.75 50 
Q 45.3125 41.40625 44.71875 30.265625 
Q 44.140625 19.140625 40.8125 12.109375 
Q 37.5 5.078125 30.859375 2.34375 
Q 24.21875 -0.390625 17.578125 2.921875 
Q 10.9375 6.25 8.203125 11.71875 
Q 5.46875 17.1875 4.296875 23.234375 
Q 3.125 29.296875 3.90625 50 
z
M 12.890625 52.734375 
Q 10.546875 31.25 12.5 22.84375 
Q 14.453125 14.453125 18.9375 10.9375 
Q 23.4375 7.421875 28.125 9.5625 
Q 32.8125 11.71875 34.953125 18.15625 
Q 37.109375 24.609375 37.109375 32.21875 
Q 37.109375 39.84375 36.515625 46.09375 
Q 35.9375 52.34375 33 57.421875 
Q 30.078125 62.5 25.1875 62.6875 
Q 20.3125 62.890625 16.59375 57.8125 
Q 12.890625 52.734375 10.546875 31.25 
z
" id="SimHei-48"/>
        <path d="M 16.796875 1.953125 
L 7.8125 1.953125 
L 7.8125 10.546875 
L 16.796875 10.546875 
z
" id="SimHei-46"/>
       </defs>
       <use xlink:href="#SimHei-48"/>
       <use x="50" xlink:href="#SimHei-46"/>
       <use x="100" xlink:href="#SimHei-48"/>
      </g>
     </g>
    </g>
    <g id="xtick_2">
     <g id="line2d_3">
      <path clip-path="url(#p557e692e79)" d="M 118.495945 224.64 
L 118.495945 7.2 
" style="fill:none;stroke:#b0b0b0;stroke-linecap:square;stroke-width:0.8;"/>
     </g>
     <g id="line2d_4">
      <g>
       <use style="stroke:#000000;stroke-width:0.8;" x="118.495945" xlink:href="#m1694494299" y="224.64"/>
      </g>
     </g>
     <g id="text_2">
      <!-- 0.2 -->
      <g transform="translate(110.995945 238.515)scale(0.1 -0.1)">
       <defs>
        <path d="M 4.6875 3.90625 
Q 5.078125 9.765625 10.15625 14.453125 
Q 15.234375 19.140625 23.046875 29.09375 
Q 30.859375 39.0625 33.203125 44.53125 
Q 35.546875 50 34.953125 53.90625 
Q 34.375 57.8125 31.25 60.34375 
Q 28.125 62.890625 24.015625 62.5 
Q 19.921875 62.109375 16.203125 59.375 
Q 12.5 56.640625 10.546875 51.171875 
L 3.125 52.34375 
Q 6.25 61.328125 11.125 65.421875 
Q 16.015625 69.53125 22.65625 69.921875 
Q 26.5625 70.3125 29.6875 69.71875 
Q 32.8125 69.140625 36.125 66.984375 
Q 39.453125 64.84375 41.59375 60.546875 
Q 43.75 56.25 43.15625 50.1875 
Q 42.578125 44.140625 37.109375 35.734375 
Q 31.640625 27.34375 16.015625 9.375 
L 44.140625 9.375 
L 44.140625 2.34375 
L 4.6875 2.34375 
z
" id="SimHei-50"/>
       </defs>
       <use xlink:href="#SimHei-48"/>
       <use x="50" xlink:href="#SimHei-46"/>
       <use x="100" xlink:href="#SimHei-50"/>
      </g>
     </g>
    </g>
    <g id="xtick_3">
     <g id="line2d_5">
      <path clip-path="url(#p557e692e79)" d="M 184.241435 224.64 
L 184.241435 7.2 
" style="fill:none;stroke:#b0b0b0;stroke-linecap:square;stroke-width:0.8;"/>
     </g>
     <g id="line2d_6">
      <g>
       <use style="stroke:#000000;stroke-width:0.8;" x="184.241435" xlink:href="#m1694494299" y="224.64"/>
      </g>
     </g>
     <g id="text_3">
      <!-- 0.4 -->
      <g transform="translate(176.741435 238.515)scale(0.1 -0.1)">
       <defs>
        <path d="M 31.25 17.1875 
L 1.171875 17.1875 
L 1.171875 23.828125 
L 32.8125 69.53125 
L 38.671875 69.53125 
L 38.671875 23.828125 
L 48.046875 23.828125 
L 48.046875 17.1875 
L 38.671875 17.1875 
L 38.671875 2.34375 
L 31.25 2.34375 
z
M 31.25 23.828125 
L 31.25 54.6875 
L 9.375 23.828125 
z
" id="SimHei-52"/>
       </defs>
       <use xlink:href="#SimHei-48"/>
       <use x="50" xlink:href="#SimHei-46"/>
       <use x="100" xlink:href="#SimHei-52"/>
      </g>
     </g>
    </g>
    <g id="xtick_4">
     <g id="line2d_7">
      <path clip-path="url(#p557e692e79)" d="M 249.986925 224.64 
L 249.986925 7.2 
" style="fill:none;stroke:#b0b0b0;stroke-linecap:square;stroke-width:0.8;"/>
     </g>
     <g id="line2d_8">
      <g>
       <use style="stroke:#000000;stroke-width:0.8;" x="249.986925" xlink:href="#m1694494299" y="224.64"/>
      </g>
     </g>
     <g id="text_4">
      <!-- 0.6 -->
      <g transform="translate(242.486925 238.515)scale(0.1 -0.1)">
       <defs>
        <path d="M 3.515625 19.53125 
Q 4.296875 30.859375 6.046875 34.765625 
Q 7.8125 38.671875 11.328125 44.53125 
L 27.34375 69.53125 
L 36.328125 69.53125 
L 19.921875 43.75 
Q 30.46875 46.484375 36.71875 42.96875 
Q 42.96875 39.453125 45.109375 34.953125 
Q 47.265625 30.46875 47.453125 25.1875 
Q 47.65625 19.921875 45.890625 14.84375 
Q 44.140625 9.765625 39.640625 5.65625 
Q 35.15625 1.5625 27.140625 1.171875 
Q 19.140625 0.78125 13.46875 4.09375 
Q 7.8125 7.421875 5.65625 13.46875 
Q 3.515625 19.53125 4.296875 30.859375 
z
M 12.5 16.015625 
Q 19.53125 8.59375 25.390625 8.203125 
Q 31.25 7.8125 35.15625 12.109375 
Q 39.0625 16.40625 39.0625 24.609375 
Q 39.0625 32.8125 34.171875 35.9375 
Q 29.296875 39.0625 23.234375 38.28125 
Q 17.1875 37.5 14.453125 32.421875 
Q 11.71875 27.34375 12.109375 21.671875 
Q 12.5 16.015625 19.53125 8.59375 
z
" id="SimHei-54"/>
       </defs>
       <use xlink:href="#SimHei-48"/>
       <use x="50" xlink:href="#SimHei-46"/>
       <use x="100" xlink:href="#SimHei-54"/>
      </g>
     </g>
    </g>
    <g id="xtick_5">
     <g id="line2d_9">
      <path clip-path="url(#p557e692e79)" d="M 315.732415 224.64 
L 315.732415 7.2 
" style="fill:none;stroke:#b0b0b0;stroke-linecap:square;stroke-width:0.8;"/>
     </g>
     <g id="line2d_10">
      <g>
       <use style="stroke:#000000;stroke-width:0.8;" x="315.732415" xlink:href="#m1694494299" y="224.64"/>
      </g>
     </g>
     <g id="text_5">
      <!-- 0.8 -->
      <g transform="translate(308.232415 238.515)scale(0.1 -0.1)">
       <defs>
        <path d="M 2.734375 16.796875 
Q 2.734375 26.171875 5.078125 30.65625 
Q 7.421875 35.15625 12.890625 37.890625 
Q 8.203125 40.625 6.640625 43.9375 
Q 5.078125 47.265625 4.875 51.5625 
Q 4.6875 55.859375 6.046875 58.984375 
Q 7.421875 62.109375 10.15625 64.84375 
Q 12.890625 67.578125 16.203125 68.546875 
Q 19.53125 69.53125 23.4375 69.53125 
Q 27.34375 69.53125 30.46875 68.75 
Q 33.59375 67.96875 37.109375 65.421875 
Q 40.625 62.890625 42.1875 58.203125 
Q 43.75 53.515625 41.984375 47.265625 
Q 40.234375 41.015625 32.8125 37.5 
Q 39.453125 35.546875 42.1875 31.4375 
Q 44.921875 27.34375 44.921875 21.484375 
Q 44.921875 15.625 43.15625 12.109375 
Q 41.40625 8.59375 39.25 6.25 
Q 37.109375 3.90625 33.390625 2.53125 
Q 29.6875 1.171875 24.015625 1.171875 
Q 18.359375 1.171875 14.25 2.53125 
Q 10.15625 3.90625 7.421875 6.640625 
Q 4.6875 9.375 3.703125 13.078125 
Q 2.734375 16.796875 2.734375 26.171875 
z
M 10.9375 26.5625 
Q 10.546875 17.1875 12.296875 13.671875 
Q 14.0625 10.15625 18.75 9.171875 
Q 23.4375 8.203125 28.515625 9.375 
Q 33.59375 10.546875 35.546875 14.84375 
Q 37.5 19.140625 36.90625 23.4375 
Q 36.328125 27.734375 32.03125 30.65625 
Q 27.734375 33.59375 22.65625 33.203125 
Q 17.578125 32.8125 14.25 29.6875 
Q 10.9375 26.5625 10.546875 17.1875 
z
M 12.109375 56.25 
Q 12.109375 48.4375 14.84375 44.921875 
Q 17.578125 41.40625 23.4375 41.40625 
Q 29.296875 41.40625 32.21875 44.921875 
Q 35.15625 48.4375 34.953125 53.3125 
Q 34.765625 58.203125 31.4375 60.546875 
Q 28.125 62.890625 22.453125 62.5 
Q 16.796875 62.109375 14.453125 59.171875 
Q 12.109375 56.25 12.109375 48.4375 
z
" id="SimHei-56"/>
       </defs>
       <use xlink:href="#SimHei-48"/>
       <use x="50" xlink:href="#SimHei-46"/>
       <use x="100" xlink:href="#SimHei-56"/>
      </g>
     </g>
    </g>
    <g id="text_6">
     <!-- F1 -->
     <g transform="translate(203.725 250.64)scale(0.1 -0.1)">
      <defs>
       <path d="M 45.703125 61.328125 
L 13.671875 61.328125 
L 13.671875 39.453125 
L 37.890625 39.453125 
L 37.890625 32.03125 
L 13.671875 32.03125 
L 13.671875 1.953125 
L 4.6875 1.953125 
L 4.6875 68.75 
L 45.703125 68.75 
z
" id="SimHei-70"/>
       <path d="M 21.875 56.25 
Q 16.796875 51.171875 8.984375 46.484375 
L 8.984375 53.90625 
Q 18.75 60.546875 25 69.53125 
L 29.6875 69.53125 
L 29.6875 2.34375 
L 21.875 2.34375 
z
" id="SimHei-49"/>
      </defs>
      <use xlink:href="#SimHei-70"/>
      <use x="50" xlink:href="#SimHei-49"/>
     </g>
    </g>
   </g>
   <g id="matplotlib.axis_2">
    <g id="ytick_1">
     <g id="line2d_11">
      <path clip-path="url(#p557e692e79)" d="M 41.325 183.299129 
L 376.125 183.299129 
" style="fill:none;stroke:#b0b0b0;stroke-linecap:square;stroke-width:0.8;"/>
     </g>
     <g id="line2d_12">
      <defs>
       <path d="M 0 0 
L -3.5 0 
" id="mf53dd2ebc3" style="stroke:#000000;stroke-width:0.8;"/>
      </defs>
      <g>
       <use style="stroke:#000000;stroke-width:0.8;" x="41.325" xlink:href="#mf53dd2ebc3" y="183.299129"/>
      </g>
     </g>
     <g id="text_7">
      <!-- 0.2 -->
      <g transform="translate(19.325 186.736629)scale(0.1 -0.1)">
       <use xlink:href="#SimHei-48"/>
       <use x="50" xlink:href="#SimHei-46"/>
       <use x="100" xlink:href="#SimHei-50"/>
      </g>
     </g>
    </g>
    <g id="ytick_2">
     <g id="line2d_13">
      <path clip-path="url(#p557e692e79)" d="M 41.325 141.502603 
L 376.125 141.502603 
" style="fill:none;stroke:#b0b0b0;stroke-linecap:square;stroke-width:0.8;"/>
     </g>
     <g id="line2d_14">
      <g>
       <use style="stroke:#000000;stroke-width:0.8;" x="41.325" xlink:href="#mf53dd2ebc3" y="141.502603"/>
      </g>
     </g>
     <g id="text_8">
      <!-- 0.4 -->
      <g transform="translate(19.325 144.940103)scale(0.1 -0.1)">
       <use xlink:href="#SimHei-48"/>
       <use x="50" xlink:href="#SimHei-46"/>
       <use x="100" xlink:href="#SimHei-52"/>
      </g>
     </g>
    </g>
    <g id="ytick_3">
     <g id="line2d_15">
      <path clip-path="url(#p557e692e79)" d="M 41.325 99.706077 
L 376.125 99.706077 
" style="fill:none;stroke:#b0b0b0;stroke-linecap:square;stroke-width:0.8;"/>
     </g>
     <g id="line2d_16">
      <g>
       <use style="stroke:#000000;stroke-width:0.8;" x="41.325" xlink:href="#mf53dd2ebc3" y="99.706077"/>
      </g>
     </g>
     <g id="text_9">
      <!-- 0.6 -->
      <g transform="translate(19.325 103.143577)scale(0.1 -0.1)">
       <use xlink:href="#SimHei-48"/>
       <use x="50" xlink:href="#SimHei-46"/>
       <use x="100" xlink:href="#SimHei-54"/>
      </g>
     </g>
    </g>
    <g id="ytick_4">
     <g id="line2d_17">
      <path clip-path="url(#p557e692e79)" d="M 41.325 57.909551 
L 376.125 57.909551 
" style="fill:none;stroke:#b0b0b0;stroke-linecap:square;stroke-width:0.8;"/>
     </g>
     <g id="line2d_18">
      <g>
       <use style="stroke:#000000;stroke-width:0.8;" x="41.325" xlink:href="#mf53dd2ebc3" y="57.909551"/>
      </g>
     </g>
     <g id="text_10">
      <!-- 0.8 -->
      <g transform="translate(19.325 61.347051)scale(0.1 -0.1)">
       <use xlink:href="#SimHei-48"/>
       <use x="50" xlink:href="#SimHei-46"/>
       <use x="100" xlink:href="#SimHei-56"/>
      </g>
     </g>
    </g>
    <g id="ytick_5">
     <g id="line2d_19">
      <path clip-path="url(#p557e692e79)" d="M 41.325 16.113025 
L 376.125 16.113025 
" style="fill:none;stroke:#b0b0b0;stroke-linecap:square;stroke-width:0.8;"/>
     </g>
     <g id="line2d_20">
      <g>
       <use style="stroke:#000000;stroke-width:0.8;" x="41.325" xlink:href="#mf53dd2ebc3" y="16.113025"/>
      </g>
     </g>
     <g id="text_11">
      <!-- 1.0 -->
      <g transform="translate(19.325 19.550525)scale(0.1 -0.1)">
       <use xlink:href="#SimHei-49"/>
       <use x="50" xlink:href="#SimHei-46"/>
       <use x="100" xlink:href="#SimHei-48"/>
      </g>
     </g>
    </g>
    <g id="text_12">
     <!-- F2 -->
     <g transform="translate(14.075 120.92)rotate(-90)scale(0.1 -0.1)">
      <use xlink:href="#SimHei-70"/>
      <use x="50" xlink:href="#SimHei-50"/>
     </g>
    </g>
   </g>
   <g id="line2d_21">
    <defs>
     <path d="M 0 1.5 
C 0.397805 1.5 0.77937 1.341951 1.06066 1.06066 
C 1.341951 0.77937 1.5 0.397805 1.5 0 
C 1.5 -0.397805 1.341951 -0.77937 1.06066 -1.06066 
C 0.77937 -1.341951 0.397805 -1.5 0 -1.5 
C -0.397805 -1.5 -0.77937 -1.341951 -1.06066 -1.06066 
C -1.341951 -0.77937 -1.5 -0.397805 -1.5 0 
C -1.5 0.397805 -1.341951 0.77937 -1.06066 1.06066 
C -0.77937 1.341951 -0.397805 1.5 0 1.5 
z
" id="m206cdf6fd2" style="stroke:#4682b4;"/>
    </defs>
    <g clip-path="url(#p557e692e79)">
     <use style="fill:#4682b4;stroke:#4682b4;" x="360.906818" xlink:href="#m206cdf6fd2" y="214.756364"/>
     <use style="fill:#4682b4;stroke:#4682b4;" x="359.767183" xlink:href="#m206cdf6fd2" y="214.592222"/>
     <use style="fill:#4682b4;stroke:#4682b4;" x="325.719655" xlink:href="#m206cdf6fd2" y="205.247929"/>
     <use style="fill:#4682b4;stroke:#4682b4;" x="324.173219" xlink:href="#m206cdf6fd2" y="204.1033"/>
     <use style="fill:#4682b4;stroke:#4682b4;" x="318.605529" xlink:href="#m206cdf6fd2" y="202.25651"/>
     <use style="fill:#4682b4;stroke:#4682b4;" x="315.302741" xlink:href="#m206cdf6fd2" y="200.226626"/>
     <use style="fill:#4682b4;stroke:#4682b4;" x="310.226406" xlink:href="#m206cdf6fd2" y="199.196563"/>
     <use style="fill:#4682b4;stroke:#4682b4;" x="310.226406" xlink:href="#m206cdf6fd2" y="199.196563"/>
     <use style="fill:#4682b4;stroke:#4682b4;" x="295.215953" xlink:href="#m206cdf6fd2" y="193.214425"/>
     <use style="fill:#4682b4;stroke:#4682b4;" x="295.215953" xlink:href="#m206cdf6fd2" y="193.214425"/>
     <use style="fill:#4682b4;stroke:#4682b4;" x="287.033885" xlink:href="#m206cdf6fd2" y="190.689184"/>
     <use style="fill:#4682b4;stroke:#4682b4;" x="282.306498" xlink:href="#m206cdf6fd2" y="189.226796"/>
     <use style="fill:#4682b4;stroke:#4682b4;" x="281.560422" xlink:href="#m206cdf6fd2" y="187.387207"/>
     <use style="fill:#4682b4;stroke:#4682b4;" x="277.158622" xlink:href="#m206cdf6fd2" y="185.596899"/>
     <use style="fill:#4682b4;stroke:#4682b4;" x="275.182195" xlink:href="#m206cdf6fd2" y="182.637985"/>
     <use style="fill:#4682b4;stroke:#4682b4;" x="275.148451" xlink:href="#m206cdf6fd2" y="179.693683"/>
     <use style="fill:#4682b4;stroke:#4682b4;" x="271.737922" xlink:href="#m206cdf6fd2" y="178.308789"/>
     <use style="fill:#4682b4;stroke:#4682b4;" x="269.181011" xlink:href="#m206cdf6fd2" y="177.390471"/>
     <use style="fill:#4682b4;stroke:#4682b4;" x="261.508259" xlink:href="#m206cdf6fd2" y="175.385593"/>
     <use style="fill:#4682b4;stroke:#4682b4;" x="252.452392" xlink:href="#m206cdf6fd2" y="174.787583"/>
     <use style="fill:#4682b4;stroke:#4682b4;" x="246.857135" xlink:href="#m206cdf6fd2" y="174.020167"/>
     <use style="fill:#4682b4;stroke:#4682b4;" x="242.670894" xlink:href="#m206cdf6fd2" y="172.594469"/>
     <use style="fill:#4682b4;stroke:#4682b4;" x="239.596777" xlink:href="#m206cdf6fd2" y="171.142454"/>
     <use style="fill:#4682b4;stroke:#4682b4;" x="234.376898" xlink:href="#m206cdf6fd2" y="169.326415"/>
     <use style="fill:#4682b4;stroke:#4682b4;" x="232.619199" xlink:href="#m206cdf6fd2" y="168.216228"/>
     <use style="fill:#4682b4;stroke:#4682b4;" x="228.597711" xlink:href="#m206cdf6fd2" y="167.271769"/>
     <use style="fill:#4682b4;stroke:#4682b4;" x="227.258646" xlink:href="#m206cdf6fd2" y="165.579434"/>
     <use style="fill:#4682b4;stroke:#4682b4;" x="220.586816" xlink:href="#m206cdf6fd2" y="164.257509"/>
     <use style="fill:#4682b4;stroke:#4682b4;" x="217.443823" xlink:href="#m206cdf6fd2" y="163.353963"/>
     <use style="fill:#4682b4;stroke:#4682b4;" x="215.293848" xlink:href="#m206cdf6fd2" y="162.14338"/>
     <use style="fill:#4682b4;stroke:#4682b4;" x="211.063794" xlink:href="#m206cdf6fd2" y="160.257616"/>
     <use style="fill:#4682b4;stroke:#4682b4;" x="210.107362" xlink:href="#m206cdf6fd2" y="159.284408"/>
     <use style="fill:#4682b4;stroke:#4682b4;" x="205.032102" xlink:href="#m206cdf6fd2" y="157.636731"/>
     <use style="fill:#4682b4;stroke:#4682b4;" x="201.586864" xlink:href="#m206cdf6fd2" y="156.000896"/>
     <use style="fill:#4682b4;stroke:#4682b4;" x="201.586864" xlink:href="#m206cdf6fd2" y="156.000896"/>
     <use style="fill:#4682b4;stroke:#4682b4;" x="197.90365" xlink:href="#m206cdf6fd2" y="154.190285"/>
     <use style="fill:#4682b4;stroke:#4682b4;" x="194.819623" xlink:href="#m206cdf6fd2" y="152.707684"/>
     <use style="fill:#4682b4;stroke:#4682b4;" x="192.258667" xlink:href="#m206cdf6fd2" y="150.706132"/>
     <use style="fill:#4682b4;stroke:#4682b4;" x="188.597699" xlink:href="#m206cdf6fd2" y="149.309387"/>
     <use style="fill:#4682b4;stroke:#4682b4;" x="185.922033" xlink:href="#m206cdf6fd2" y="147.755421"/>
     <use style="fill:#4682b4;stroke:#4682b4;" x="185.922033" xlink:href="#m206cdf6fd2" y="147.755421"/>
     <use style="fill:#4682b4;stroke:#4682b4;" x="180.626509" xlink:href="#m206cdf6fd2" y="145.43725"/>
     <use style="fill:#4682b4;stroke:#4682b4;" x="179.765931" xlink:href="#m206cdf6fd2" y="144.510101"/>
     <use style="fill:#4682b4;stroke:#4682b4;" x="176.918973" xlink:href="#m206cdf6fd2" y="143.323711"/>
     <use style="fill:#4682b4;stroke:#4682b4;" x="172.997306" xlink:href="#m206cdf6fd2" y="141.521206"/>
     <use style="fill:#4682b4;stroke:#4682b4;" x="171.47282" xlink:href="#m206cdf6fd2" y="139.967366"/>
     <use style="fill:#4682b4;stroke:#4682b4;" x="169.178151" xlink:href="#m206cdf6fd2" y="137.46249"/>
     <use style="fill:#4682b4;stroke:#4682b4;" x="167.277598" xlink:href="#m206cdf6fd2" y="135.903763"/>
     <use style="fill:#4682b4;stroke:#4682b4;" x="167.244475" xlink:href="#m206cdf6fd2" y="134.212361"/>
     <use style="fill:#4682b4;stroke:#4682b4;" x="166.713237" xlink:href="#m206cdf6fd2" y="133.448572"/>
     <use style="fill:#4682b4;stroke:#4682b4;" x="165.24099" xlink:href="#m206cdf6fd2" y="128.710821"/>
     <use style="fill:#4682b4;stroke:#4682b4;" x="164.471107" xlink:href="#m206cdf6fd2" y="127.037123"/>
     <use style="fill:#4682b4;stroke:#4682b4;" x="160.489739" xlink:href="#m206cdf6fd2" y="123.679289"/>
     <use style="fill:#4682b4;stroke:#4682b4;" x="158.514804" xlink:href="#m206cdf6fd2" y="123.350986"/>
     <use style="fill:#4682b4;stroke:#4682b4;" x="153.732567" xlink:href="#m206cdf6fd2" y="122.04374"/>
     <use style="fill:#4682b4;stroke:#4682b4;" x="148.486984" xlink:href="#m206cdf6fd2" y="121.735268"/>
     <use style="fill:#4682b4;stroke:#4682b4;" x="145.861962" xlink:href="#m206cdf6fd2" y="121.63182"/>
     <use style="fill:#4682b4;stroke:#4682b4;" x="143.198442" xlink:href="#m206cdf6fd2" y="121.276624"/>
     <use style="fill:#4682b4;stroke:#4682b4;" x="140.29878" xlink:href="#m206cdf6fd2" y="120.910456"/>
     <use style="fill:#4682b4;stroke:#4682b4;" x="136.910225" xlink:href="#m206cdf6fd2" y="119.967266"/>
     <use style="fill:#4682b4;stroke:#4682b4;" x="133.844689" xlink:href="#m206cdf6fd2" y="118.392286"/>
     <use style="fill:#4682b4;stroke:#4682b4;" x="132.659896" xlink:href="#m206cdf6fd2" y="117.592563"/>
     <use style="fill:#4682b4;stroke:#4682b4;" x="129.433868" xlink:href="#m206cdf6fd2" y="116.228334"/>
     <use style="fill:#4682b4;stroke:#4682b4;" x="127.769255" xlink:href="#m206cdf6fd2" y="115.210305"/>
     <use style="fill:#4682b4;stroke:#4682b4;" x="126.259888" xlink:href="#m206cdf6fd2" y="113.825543"/>
     <use style="fill:#4682b4;stroke:#4682b4;" x="123.870064" xlink:href="#m206cdf6fd2" y="112.053717"/>
     <use style="fill:#4682b4;stroke:#4682b4;" x="121.018428" xlink:href="#m206cdf6fd2" y="110.461867"/>
     <use style="fill:#4682b4;stroke:#4682b4;" x="118.167045" xlink:href="#m206cdf6fd2" y="108.593013"/>
     <use style="fill:#4682b4;stroke:#4682b4;" x="115.481578" xlink:href="#m206cdf6fd2" y="106.514672"/>
     <use style="fill:#4682b4;stroke:#4682b4;" x="113.56402" xlink:href="#m206cdf6fd2" y="104.961579"/>
     <use style="fill:#4682b4;stroke:#4682b4;" x="111.636122" xlink:href="#m206cdf6fd2" y="103.339969"/>
     <use style="fill:#4682b4;stroke:#4682b4;" x="109.288821" xlink:href="#m206cdf6fd2" y="101.661228"/>
     <use style="fill:#4682b4;stroke:#4682b4;" x="107.332481" xlink:href="#m206cdf6fd2" y="100.094863"/>
     <use style="fill:#4682b4;stroke:#4682b4;" x="104.964758" xlink:href="#m206cdf6fd2" y="98.057633"/>
     <use style="fill:#4682b4;stroke:#4682b4;" x="102.82049" xlink:href="#m206cdf6fd2" y="96.660218"/>
     <use style="fill:#4682b4;stroke:#4682b4;" x="100.348241" xlink:href="#m206cdf6fd2" y="94.728172"/>
     <use style="fill:#4682b4;stroke:#4682b4;" x="98.422202" xlink:href="#m206cdf6fd2" y="93.145689"/>
     <use style="fill:#4682b4;stroke:#4682b4;" x="96.192244" xlink:href="#m206cdf6fd2" y="91.068565"/>
     <use style="fill:#4682b4;stroke:#4682b4;" x="94.507964" xlink:href="#m206cdf6fd2" y="89.804458"/>
     <use style="fill:#4682b4;stroke:#4682b4;" x="92.408932" xlink:href="#m206cdf6fd2" y="88.247102"/>
     <use style="fill:#4682b4;stroke:#4682b4;" x="89.567387" xlink:href="#m206cdf6fd2" y="84.511438"/>
     <use style="fill:#4682b4;stroke:#4682b4;" x="86.963323" xlink:href="#m206cdf6fd2" y="82.717588"/>
     <use style="fill:#4682b4;stroke:#4682b4;" x="84.718167" xlink:href="#m206cdf6fd2" y="80.401446"/>
     <use style="fill:#4682b4;stroke:#4682b4;" x="82.598113" xlink:href="#m206cdf6fd2" y="77.843162"/>
     <use style="fill:#4682b4;stroke:#4682b4;" x="80.76065" xlink:href="#m206cdf6fd2" y="75.283393"/>
     <use style="fill:#4682b4;stroke:#4682b4;" x="77.879182" xlink:href="#m206cdf6fd2" y="72.239274"/>
     <use style="fill:#4682b4;stroke:#4682b4;" x="75.82253" xlink:href="#m206cdf6fd2" y="69.867514"/>
     <use style="fill:#4682b4;stroke:#4682b4;" x="73.72392" xlink:href="#m206cdf6fd2" y="66.201247"/>
     <use style="fill:#4682b4;stroke:#4682b4;" x="71.616458" xlink:href="#m206cdf6fd2" y="62.342587"/>
     <use style="fill:#4682b4;stroke:#4682b4;" x="69.413686" xlink:href="#m206cdf6fd2" y="58.570294"/>
     <use style="fill:#4682b4;stroke:#4682b4;" x="66.821297" xlink:href="#m206cdf6fd2" y="54.341663"/>
     <use style="fill:#4682b4;stroke:#4682b4;" x="64.307336" xlink:href="#m206cdf6fd2" y="50.197364"/>
     <use style="fill:#4682b4;stroke:#4682b4;" x="61.507913" xlink:href="#m206cdf6fd2" y="44.611755"/>
     <use style="fill:#4682b4;stroke:#4682b4;" x="59.237808" xlink:href="#m206cdf6fd2" y="37.502174"/>
     <use style="fill:#4682b4;stroke:#4682b4;" x="56.543182" xlink:href="#m206cdf6fd2" y="17.083636"/>
    </g>
   </g>
   <g id="patch_3">
    <path d="M 41.325 224.64 
L 41.325 7.2 
" style="fill:none;stroke:#000000;stroke-linecap:square;stroke-linejoin:miter;stroke-width:0.8;"/>
   </g>
   <g id="patch_4">
    <path d="M 376.125 224.64 
L 376.125 7.2 
" style="fill:none;stroke:#000000;stroke-linecap:square;stroke-linejoin:miter;stroke-width:0.8;"/>
   </g>
   <g id="patch_5">
    <path d="M 41.325 224.64 
L 376.125 224.64 
" style="fill:none;stroke:#000000;stroke-linecap:square;stroke-linejoin:miter;stroke-width:0.8;"/>
   </g>
   <g id="patch_6">
    <path d="M 41.325 7.2 
L 376.125 7.2 
" style="fill:none;stroke:#000000;stroke-linecap:square;stroke-linejoin:miter;stroke-width:0.8;"/>
   </g>
   <g id="legend_1">
    <g id="patch_7">
     <path d="M 277.125 28.45 
L 369.125 28.45 
Q 371.125 28.45 371.125 26.45 
L 371.125 14.2 
Q 371.125 12.2 369.125 12.2 
L 277.125 12.2 
Q 275.125 12.2 275.125 14.2 
L 275.125 26.45 
Q 275.125 28.45 277.125 28.45 
z
" style="fill:#ffffff;opacity:0.8;stroke:#cccccc;stroke-linejoin:miter;"/>
    </g>
    <g id="line2d_22"/>
    <g id="line2d_23">
     <g>
      <use style="fill:#4682b4;stroke:#4682b4;" x="289.125" xlink:href="#m206cdf6fd2" y="19.7"/>
     </g>
    </g>
    <g id="text_13">
     <!-- Pareto Front -->
     <g transform="translate(307.125 23.2)scale(0.1 -0.1)">
      <defs>
       <path d="M 46.09375 48.4375 
Q 46.09375 39.0625 40.625 33.59375 
Q 35.15625 28.125 25.390625 28.125 
L 14.0625 28.125 
L 14.0625 1.953125 
L 5.078125 1.953125 
L 5.078125 68.75 
L 25.390625 68.75 
Q 35.15625 68.75 40.625 63.28125 
Q 46.09375 57.8125 46.09375 48.4375 
z
M 37.109375 48.4375 
Q 37.109375 55.859375 33.59375 58.59375 
Q 30.078125 61.328125 23.046875 61.328125 
L 14.0625 61.328125 
L 14.0625 35.546875 
L 23.046875 35.546875 
Q 30.078125 35.546875 33.59375 38.28125 
Q 37.109375 41.015625 37.109375 48.4375 
z
" id="SimHei-80"/>
       <path d="M 44.921875 1.953125 
L 35.546875 1.953125 
Q 34.765625 2.734375 34.375 4.09375 
Q 33.984375 5.46875 33.984375 7.421875 
Q 31.25 4.296875 27.34375 2.734375 
Q 23.4375 1.171875 19.140625 1.171875 
Q 12.890625 1.171875 8.59375 4.296875 
Q 4.296875 7.421875 4.296875 13.28125 
Q 4.296875 19.140625 8.203125 22.65625 
Q 12.109375 26.171875 20.3125 27.34375 
Q 25.78125 28.125 29.875 29.296875 
Q 33.984375 30.46875 33.984375 32.421875 
Q 33.984375 34.765625 32.21875 37.109375 
Q 30.46875 39.453125 24.609375 39.453125 
Q 19.921875 39.453125 17.765625 37.6875 
Q 15.625 35.9375 14.84375 32.8125 
L 6.25 32.8125 
Q 7.03125 39.0625 11.90625 42.765625 
Q 16.796875 46.484375 24.609375 46.484375 
Q 33.203125 46.484375 37.5 42.578125 
Q 41.796875 38.671875 41.796875 31.640625 
L 41.796875 10.15625 
Q 41.796875 7.8125 42.578125 5.859375 
Q 43.359375 3.90625 44.921875 1.953125 
z
M 33.984375 16.40625 
L 33.984375 24.21875 
Q 31.640625 23.4375 29.484375 22.84375 
Q 27.34375 22.265625 22.265625 21.484375 
Q 16.40625 20.703125 14.640625 18.75 
Q 12.890625 16.796875 12.890625 14.0625 
Q 12.890625 11.71875 14.640625 9.953125 
Q 16.40625 8.203125 19.921875 8.203125 
Q 23.4375 8.203125 27.53125 10.15625 
Q 31.640625 12.109375 33.984375 16.40625 
z
" id="SimHei-97"/>
       <path d="M 39.0625 37.890625 
Q 31.640625 39.0625 26.5625 35.734375 
Q 21.484375 32.421875 17.96875 24.21875 
L 17.96875 1.953125 
L 10.15625 1.953125 
L 10.15625 45.703125 
L 17.96875 45.703125 
L 17.96875 34.375 
Q 21.484375 40.625 26.75 43.546875 
Q 32.03125 46.484375 39.0625 46.484375 
z
" id="SimHei-114"/>
       <path d="M 44.53125 16.796875 
Q 43.75 9.765625 38.28125 5.46875 
Q 32.8125 1.171875 25.390625 1.171875 
Q 16.015625 1.171875 9.953125 7.21875 
Q 3.90625 13.28125 3.90625 23.828125 
Q 3.90625 34.375 9.953125 40.421875 
Q 16.015625 46.484375 25.390625 46.484375 
Q 33.59375 46.484375 38.859375 41.203125 
Q 44.140625 35.9375 44.140625 23.828125 
L 12.5 23.828125 
Q 12.5 15.234375 16.203125 11.71875 
Q 19.921875 8.203125 25.390625 8.203125 
Q 29.6875 8.203125 32.421875 10.34375 
Q 35.15625 12.5 35.9375 16.796875 
z
M 35.15625 30.078125 
Q 34.375 35.546875 31.640625 37.6875 
Q 28.90625 39.84375 24.609375 39.84375 
Q 20.703125 39.84375 17.578125 37.6875 
Q 14.453125 35.546875 12.890625 30.078125 
z
" id="SimHei-101"/>
       <path d="M 42.96875 3.125 
Q 41.015625 2.34375 38.46875 1.75 
Q 35.9375 1.171875 31.640625 1.171875 
Q 24.609375 1.171875 20.3125 5.078125 
Q 16.015625 8.984375 16.015625 16.015625 
L 16.015625 39.453125 
L 2.734375 39.453125 
L 2.734375 45.703125 
L 16.015625 45.703125 
L 16.015625 60.9375 
L 23.828125 60.9375 
L 23.828125 45.703125 
L 39.84375 45.703125 
L 39.84375 39.453125 
L 23.828125 39.453125 
L 23.828125 15.625 
Q 23.828125 12.5 25.390625 10.34375 
Q 26.953125 8.203125 31.25 8.203125 
Q 35.546875 8.203125 38.28125 8.984375 
Q 41.015625 9.765625 42.96875 10.9375 
z
" id="SimHei-116"/>
       <path d="M 45.703125 23.828125 
Q 45.703125 13.671875 39.453125 7.421875 
Q 33.203125 1.171875 24.609375 1.171875 
Q 16.015625 1.171875 9.765625 7.421875 
Q 3.515625 13.671875 3.515625 23.828125 
Q 3.515625 33.984375 9.765625 40.234375 
Q 16.015625 46.484375 24.609375 46.484375 
Q 33.203125 46.484375 39.453125 40.234375 
Q 45.703125 33.984375 45.703125 23.828125 
z
M 37.109375 23.828125 
Q 37.109375 31.640625 33.203125 35.546875 
Q 29.296875 39.453125 24.609375 39.453125 
Q 19.921875 39.453125 16.015625 35.546875 
Q 12.109375 31.640625 12.109375 23.828125 
Q 12.109375 16.015625 16.015625 12.109375 
Q 19.921875 8.203125 24.609375 8.203125 
Q 29.296875 8.203125 33.203125 12.109375 
Q 37.109375 16.015625 37.109375 23.828125 
z
" id="SimHei-111"/>
       <path id="SimHei-32"/>
       <path d="M 43.75 1.953125 
L 35.9375 1.953125 
L 35.9375 30.078125 
Q 35.9375 34.765625 33.59375 37.5 
Q 31.25 40.234375 27.34375 40.234375 
Q 22.265625 40.234375 17.765625 34.953125 
Q 13.28125 29.6875 13.28125 21.875 
L 13.28125 1.953125 
L 5.46875 1.953125 
L 5.46875 45.703125 
L 13.28125 45.703125 
L 13.28125 37.5 
Q 16.40625 41.796875 20.109375 44.140625 
Q 23.828125 46.484375 29.6875 46.484375 
Q 36.71875 46.484375 40.234375 42.578125 
Q 43.75 38.671875 43.75 32.8125 
z
" id="SimHei-110"/>
      </defs>
      <use xlink:href="#SimHei-80"/>
      <use x="50" xlink:href="#SimHei-97"/>
      <use x="100" xlink:href="#SimHei-114"/>
      <use x="150" xlink:href="#SimHei-101"/>
      <use x="200" xlink:href="#SimHei-116"/>
      <use x="250" xlink:href="#SimHei-111"/>
      <use x="300" xlink:href="#SimHei-32"/>
      <use x="350" xlink:href="#SimHei-70"/>
      <use x="400" xlink:href="#SimHei-114"/>
      <use x="450" xlink:href="#SimHei-111"/>
      <use x="500" xlink:href="#SimHei-110"/>
      <use x="550" xlink:href="#SimHei-116"/>
     </g>
    </g>
   </g>
  </g>
 </g>
 <defs>
  <clipPath id="p557e692e79">
   <rect height="217.44" width="334.8" x="41.325" y="7.2"/>
  </clipPath>
 </defs>
</svg>
